<?xml version="1.0" encoding="utf-8"?>
<!-- Generator: Adobe Illustrator 25.2.0, SVG Export Plug-In . SVG Version: 6.00 Build 0)  -->
<svg version="1.1" id="Ebene_1" xmlns="http://www.w3.org/2000/svg" xmlns:xlink="http://www.w3.org/1999/xlink" x="0px" y="0px"
	 viewBox="0 0 2374.9 512" style="enable-background:new 0 0 2374.9 512;" xml:space="preserve">
<style type="text/css">
	.st0{fill:none;}
</style>
<path d="M256,0C114.6,0,0,114.6,0,256s114.6,256,256,256s256-114.6,256-256S397.4,0,256,0z M136,343.8V168.2L260.3,256L136,343.8z
	 M267.7,343.8V168.2L392,256L267.7,343.8z"/>
<path class="st0" d="M128,128h256v256H128V128z"/>
<g>
	<path d="M640,63.4h207.4v41.7H689.7v128h145.7v41.1H689.7v174.3H640V63.4z"/>
	<path d="M1044,448.6l-4-34.9h-1.7c-15.4,21.7-45.1,41.1-84.6,41.1c-56,0-84.6-39.4-84.6-79.4c0-66.9,59.4-103.4,166.3-102.9v-5.7
		c0-22.9-6.3-64-62.9-64c-25.7,0-52.6,8-72,20.6l-11.4-33.1c22.9-14.9,56-24.6,90.9-24.6c84.6,0,105.1,57.7,105.1,113.1v103.4
		c0,24,1.1,47.4,4.6,66.3H1044z M1036.6,307.4c-54.9-1.1-117.1,8.6-117.1,62.3c0,32.6,21.7,48,47.4,48c36,0,58.9-22.9,66.9-46.3
		c1.7-5.1,2.9-10.9,2.9-16V307.4z"/>
	<path d="M1159.4,397.1c14.9,9.7,41.1,20,66.3,20c36.6,0,53.7-18.3,53.7-41.1c0-24-14.3-37.1-51.4-50.9
		c-49.7-17.7-73.1-45.1-73.1-78.3c0-44.6,36-81.1,95.4-81.1c28,0,52.6,8,68,17.1l-12.6,36.6c-10.9-6.9-30.9-16-56.6-16
		c-29.7,0-46.3,17.1-46.3,37.7c0,22.9,16.6,33.1,52.6,46.9c48,18.3,72.6,42.3,72.6,83.4c0,48.6-37.7,82.9-103.4,82.9
		c-30.3,0-58.3-7.4-77.7-18.9L1159.4,397.1z"/>
	<path d="M1453.1,92.6V172h72v38.3h-72v149.1c0,34.3,9.7,53.7,37.7,53.7c13.1,0,22.9-1.7,29.1-3.4l2.3,37.7
		c-9.7,4-25.1,6.9-44.6,6.9c-23.4,0-42.3-7.4-54.3-21.1c-14.3-14.9-19.4-39.4-19.4-72V210.3h-42.9V172h42.9v-66.3L1453.1,92.6z"/>
	<path d="M1908,279.4c-2.9-53.7-6.3-118.3-5.7-166.3h-1.7c-13.1,45.1-29.1,93.1-48.6,146.3l-68,186.9h-37.7L1684,262.9
		c-18.3-54.3-33.7-104-44.6-149.7h-1.1c-1.1,48-4,112.6-7.4,170.3l-10.3,165.1h-47.4L1600,63.4h63.4l65.7,186.3
		c16,47.4,29.1,89.7,38.9,129.7h1.7c9.7-38.9,23.4-81.1,40.6-129.7l68.6-186.3h63.4l24,385.1h-48.6L1908,279.4z"/>
	<path d="M2360.6,505.1c-52-13.7-102.9-29.1-147.4-44.6c-8-2.9-16-5.7-23.4-5.7C2098.3,451.4,2020,384,2020,260
		c0-123.4,75.4-202.9,179.4-202.9C2304,57.1,2372,138.3,2372,252c0,98.9-45.7,162.3-109.7,184.6v2.3c38.3,9.7,80,18.9,112.6,24.6
		L2360.6,505.1z M2319.4,254.3c0-77.1-40-156.6-121.7-156.6c-84,0-125.1,77.7-124.6,161.1c-0.6,81.7,44.6,155.4,122.3,155.4
		C2274.9,414.3,2319.4,342.3,2319.4,254.3z"/>
</g>
</svg>
